<?xml version="1.0" encoding="utf-8"?>
<!-- Generator: Adobe Illustrator 16.0.0, SVG Export Plug-In . SVG Version: 6.00 Build 0)  -->
<!DOCTYPE svg PUBLIC "-//W3C//DTD SVG 1.1//EN" "http://www.w3.org/Graphics/SVG/1.1/DTD/svg11.dtd">
<svg version="1.1" id="Layer_1" xmlns="http://www.w3.org/2000/svg" xmlns:xlink="http://www.w3.org/1999/xlink" x="0px" y="0px"
	 width="85px" height="70px" viewBox="0 0 85 70" enable-background="new 0 0 85 70" xml:space="preserve">
<g>
	<g>
		<path fill="#FFFFFF" d="M30.304,19.787H5.137L1.78,16.431h28.864C30.494,17.523,30.383,18.642,30.304,19.787z M30.195,23.144
			c0,0.678,0.013,1.349,0.041,2.013H10.506L7.15,21.801h23.063C30.201,22.246,30.195,22.694,30.195,23.144z M30.776,30.75H16.1
			l-3.356-3.355h17.63C30.47,28.542,30.604,29.661,30.776,30.75z M55.298,27.395h16.959L68.9,30.75H54.896
			C55.064,29.661,55.201,28.542,55.298,27.395z M55.477,23.144c0-0.45-0.007-0.897-0.018-1.343H77.85l-3.355,3.356H55.437
			C55.463,24.493,55.477,23.821,55.477,23.144z M55.027,16.431H83.22l-3.355,3.356H55.366
			C55.291,18.642,55.177,17.523,55.027,16.431z"/>
		<path fill="#FFFFFF" d="M48.43,18.221c1.048,0,1.901,2.354,1.901,5.258c0,2.904-0.854,5.258-1.901,5.258
			c-1.05,0-1.902-2.354-1.902-5.258C46.527,20.575,47.38,18.221,48.43,18.221z M50.993,32.213c-0.691,1.32-1.318,2.683-2.095,3.951
			c-0.66,1.077-1.886,1.263-3.012,1.283c-2.359,0.043-4.725-0.043-7.087-0.112c-1.204-0.036-2.045-0.703-2.676-1.688
			c-1.119-1.747-1.646-3.7-1.989-5.707c-0.913-5.338-0.846-10.643,0.673-15.883c0.143-0.492,0.367-0.959,0.539-1.445
			c0.774-2.199,2.313-3.363,4.676-3.34c2.139,0.02,4.276,0.083,6.413,0.147c1.351,0.042,2.358,0.708,2.966,1.877
			c0.559,1.071,1.013,2.199,1.512,3.302l-0.233,0.124c-0.264-0.396-0.501-0.81-0.794-1.184c-0.936-1.188-2.187-1.271-2.936,0.027
			c-0.759,1.313-1.381,2.788-1.685,4.266c-0.932,4.513-0.875,9.03,0.633,13.444c0.253,0.729,0.622,1.414,1.09,2.03
			c0.877,1.15,1.901,1.132,2.823,0.018c0.324-0.391,0.575-0.846,0.859-1.271C50.78,32.106,50.888,32.16,50.993,32.213L50.993,32.213
			z"/>
	</g>
	<g>
		<g enable-background="new    ">
			<path fill="#FFFFFF" d="M17.672,52.265c0-2.211,0.834-4.104,2.501-5.681c1.667-1.578,3.671-2.367,6.012-2.367
				c2.284,0,4.251,0.794,5.902,2.386c1.651,1.588,2.477,3.476,2.477,5.662c0,2.313-0.817,4.269-2.448,5.866
				c-1.63,1.598-3.633,2.396-6.005,2.396c-2.34,0-4.331-0.805-5.976-2.413C18.491,56.505,17.672,54.556,17.672,52.265z
				 M32.349,52.386c0-1.688-0.61-3.108-1.828-4.265c-1.217-1.157-2.718-1.733-4.497-1.733c-1.692,0-3.142,0.588-4.347,1.762
				c-1.206,1.176-1.81,2.587-1.81,4.234c0,1.671,0.62,3.085,1.857,4.238c1.237,1.155,2.757,1.734,4.553,1.734
				c1.651,0,3.076-0.588,4.275-1.77C31.751,55.405,32.349,54.007,32.349,52.386z"/>
			<path fill="#FFFFFF" d="M37.162,44.082l11.344,11.646v-11.02h2.079v16.02L39.242,49.114v10.898h-2.081V44.082z"/>
			<path fill="#FFFFFF" d="M53.575,44.082l11.343,11.646v-11.02h2.081v16.02L55.655,49.114v10.898h-2.08V44.082z"/>
		</g>
	</g>
</g>
</svg>
