<?xml version="1.0" encoding="utf-8"?>
<!-- Generator: Adobe Illustrator 16.0.0, SVG Export Plug-In . SVG Version: 6.00 Build 0)  -->
<!DOCTYPE svg PUBLIC "-//W3C//DTD SVG 1.1//EN" "http://www.w3.org/Graphics/SVG/1.1/DTD/svg11.dtd">
<svg version="1.1" id="Layer_1" xmlns="http://www.w3.org/2000/svg" xmlns:xlink="http://www.w3.org/1999/xlink" x="0px" y="0px"
	 width="10px" height="10.292px" viewBox="0 0 10 10.292" enable-background="new 0 0 10 10.292" xml:space="preserve">
<g opacity="0.8">
	<path fill="#1E2D51" d="M7.761,5.97c-1.053,0-1.909,0.857-1.909,1.91c0,1.054,0.856,1.908,1.909,1.908
		c1.054,0,1.909-0.854,1.909-1.908C9.67,6.828,8.814,5.97,7.761,5.97L7.761,5.97z M7.761,9.472c-0.877,0-1.591-0.715-1.591-1.592
		s0.714-1.592,1.591-1.592c0.878,0,1.593,0.715,1.593,1.592S8.639,9.472,7.761,9.472L7.761,9.472z"/>
	<path fill="#1E2D51" d="M8.716,7.721H7.92V6.925c0-0.088-0.07-0.158-0.159-0.158c-0.088,0-0.159,0.07-0.159,0.158V7.88
		c0,0.088,0.071,0.158,0.159,0.158h0.955c0.089,0,0.159-0.07,0.159-0.158S8.805,7.721,8.716,7.721L8.716,7.721z"/>
	<path fill="#1E2D51" d="M4.737,3.902H1.555v4.614h3.182V5.653h2.865V3.902H4.737z M6.17,4.219h1.113v1.116H6.17V4.219z
		 M3.305,4.219h1.114v1.116H3.305V4.219z M1.873,4.219h1.115v1.116H1.873V4.219z M1.873,5.653h1.115v1.113H1.873V5.653z
		 M2.988,8.197H1.873V7.085h1.115V8.197z M4.419,8.197H3.305V7.085h1.114V8.197z M4.419,6.767H3.305V5.653h1.114V6.767z
		 M5.852,5.335H4.737V4.219H5.85v1.116H5.852z"/>
	<path fill="#1E2D51" d="M5.691,9.313H0.759V3.106h7.638v2.068c0,0.088,0.071,0.16,0.16,0.16c0.088,0,0.158-0.072,0.158-0.16V1.356
		c0-0.088-0.07-0.159-0.158-0.159H7.761V0.719c0-0.087-0.069-0.159-0.159-0.159H6.488c-0.09,0-0.159,0.072-0.159,0.159v0.478H2.828
		V0.719c0-0.087-0.072-0.159-0.16-0.159H1.555c-0.089,0-0.159,0.072-0.159,0.159v0.478H0.6c-0.087,0-0.159,0.071-0.159,0.159v8.116
		C0.441,9.56,0.513,9.63,0.6,9.63h5.091c0.088,0,0.158-0.07,0.158-0.158S5.779,9.313,5.691,9.313L5.691,9.313z M6.646,0.878h0.795
		v0.955H6.646V0.878z M1.714,0.878h0.795v0.955H1.714V0.878z M0.759,1.515h0.637v0.477c0,0.088,0.07,0.159,0.159,0.159h1.113
		c0.088,0,0.16-0.071,0.16-0.159V1.515h3.501v0.477c0,0.088,0.069,0.159,0.159,0.159h1.113c0.088,0,0.158-0.071,0.158-0.159V1.515
		h0.637v1.272H0.759V1.515z"/>
</g>
</svg>
