<svg width="35" height="35" viewBox="0 0 35 35" fill="none" xmlns="http://www.w3.org/2000/svg">
<circle cx="17.1971" cy="17.5093" r="17.1971" fill="#EB7F23"/>
<path d="M25.9379 14.5391C25.9379 13.3984 25.9379 12.6003 25.9379 12.5247C25.9379 11.6775 25.2487 10.9883 24.4015 10.9883H24.1966V12.8661C24.1966 13.1489 23.9673 13.3782 23.6845 13.3782C23.4017 13.3782 23.1724 13.1489 23.1724 12.8661C23.1724 12.2912 23.1724 10.7072 23.1724 10.1347C23.1724 9.85186 22.9431 9.62256 22.6602 9.62256C22.3774 9.62256 22.1481 9.85186 22.1481 10.1347V10.9883H18.7339V12.8661C18.7339 13.1489 18.5046 13.3782 18.2217 13.3782C17.9389 13.3782 17.7096 13.1489 17.7096 12.8661C17.7096 12.2912 17.7096 10.7072 17.7096 10.1347C17.7096 9.85186 17.4803 9.62256 17.1975 9.62256C16.9146 9.62256 16.6853 9.85186 16.6853 10.1347V10.9883H13.2711V12.8661C13.2711 13.1489 13.0418 13.3782 12.759 13.3782C12.4761 13.3782 12.2468 13.1489 12.2468 12.8661C12.2468 12.2912 12.2468 10.7072 12.2468 10.1347C12.2468 9.85186 12.0175 9.62256 11.7347 9.62256C11.4519 9.62256 11.2226 9.85186 11.2226 10.1347V10.9883H9.99344C9.14626 10.9883 8.45703 11.6775 8.45703 12.5247V14.5391H25.9379Z" fill="white"/>
<path d="M8.45703 15.5635V23.8601C8.45703 24.7072 9.14626 25.3965 9.99344 25.3965H24.4015C25.2487 25.3965 25.9379 24.7072 25.9379 23.8601C25.9379 23.6407 25.9379 18.8476 25.9379 15.5635C25.6192 15.5635 8.63334 15.5635 8.45703 15.5635ZM13.3735 22.6651H12.281C11.9981 22.6651 11.7688 22.4358 11.7688 22.1529C11.7688 21.8701 11.9981 21.6408 12.281 21.6408H13.3735C13.6564 21.6408 13.8857 21.8701 13.8857 22.1529C13.8857 22.4358 13.6564 22.6651 13.3735 22.6651ZM13.3735 20.48H12.281C11.9981 20.48 11.7688 20.2507 11.7688 19.9678C11.7688 19.685 11.9981 19.4557 12.281 19.4557H13.3735C13.6564 19.4557 13.8857 19.685 13.8857 19.9678C13.8857 20.2507 13.6564 20.48 13.3735 20.48ZM13.3735 18.2949H12.281C11.9981 18.2949 11.7688 18.0656 11.7688 17.7827C11.7688 17.4999 11.9981 17.2706 12.281 17.2706H13.3735C13.6564 17.2706 13.8857 17.4999 13.8857 17.7827C13.8857 18.0656 13.6564 18.2949 13.3735 18.2949ZM17.7437 22.6651H16.6512C16.3684 22.6651 16.1391 22.4358 16.1391 22.1529C16.1391 21.8701 16.3684 21.6408 16.6512 21.6408H17.7437C18.0266 21.6408 18.2559 21.8701 18.2559 22.1529C18.2559 22.4358 18.0266 22.6651 17.7437 22.6651ZM17.7437 20.48H16.6512C16.3684 20.48 16.1391 20.2507 16.1391 19.9678C16.1391 19.685 16.3684 19.4557 16.6512 19.4557H17.7437C18.0266 19.4557 18.2559 19.685 18.2559 19.9678C18.2559 20.2507 18.0266 20.48 17.7437 20.48ZM17.7437 18.2949H16.6512C16.3684 18.2949 16.1391 18.0656 16.1391 17.7827C16.1391 17.4999 16.3684 17.2706 16.6512 17.2706H17.7437C18.0266 17.2706 18.2559 17.4999 18.2559 17.7827C18.2559 18.0656 18.0266 18.2949 17.7437 18.2949ZM22.114 22.6651H21.0214C20.7386 22.6651 20.5093 22.4358 20.5093 22.1529C20.5093 21.8701 20.7386 21.6408 21.0214 21.6408H22.114C22.3968 21.6408 22.6261 21.8701 22.6261 22.1529C22.6261 22.4358 22.3968 22.6651 22.114 22.6651ZM22.114 20.48H21.0214C20.7386 20.48 20.5093 20.2507 20.5093 19.9678C20.5093 19.685 20.7386 19.4557 21.0214 19.4557H22.114C22.3968 19.4557 22.6261 19.685 22.6261 19.9678C22.6261 20.2507 22.3968 20.48 22.114 20.48ZM22.114 18.2949H21.0214C20.7386 18.2949 20.5093 18.0656 20.5093 17.7827C20.5093 17.4999 20.7386 17.2706 21.0214 17.2706H22.114C22.3968 17.2706 22.6261 17.4999 22.6261 17.7827C22.6261 18.0656 22.3968 18.2949 22.114 18.2949Z" fill="white"/>
</svg>
