<?xml version="1.0" encoding="utf-8"?>
<!-- Generator: Adobe Illustrator 16.2.0, SVG Export Plug-In . SVG Version: 6.00 Build 0)  -->
<!DOCTYPE svg PUBLIC "-//W3C//DTD SVG 1.1//EN" "http://www.w3.org/Graphics/SVG/1.1/DTD/svg11.dtd">
<svg version="1.1" id="Capa_1" xmlns="http://www.w3.org/2000/svg" xmlns:xlink="http://www.w3.org/1999/xlink" x="0px" y="0px"
	 width="32px" height="32px" viewBox="0 0 32 32" enable-background="new 0 0 32 32" xml:space="preserve">
<g opacity="0.3">
	<g>
		<path d="M6.075,14.222c-0.289,0-0.522,0.234-0.522,0.523v16.731C5.553,31.766,5.787,32,6.075,32c0.289,0,0.523-0.234,0.523-0.523
			V14.745C6.598,14.456,6.364,14.222,6.075,14.222z"/>
	</g>
</g>
<g opacity="0.3">
	<g>
		<path d="M16.672,10.458h-0.545V6.43c0-0.289-0.234-0.523-0.523-0.523h-0.213V4.856c0-0.192-0.106-0.369-0.275-0.46l-3.219-1.737
			V0.523C11.897,0.234,11.663,0,11.374,0s-0.523,0.234-0.523,0.523v2.136L7.632,4.396c-0.169,0.091-0.274,0.268-0.274,0.46v1.051
			H7.144c-0.289,0-0.523,0.234-0.523,0.523v4.027H6.076c-0.289,0-0.523,0.234-0.523,0.523v2.022c0,0.289,0.234,0.522,0.523,0.522
			s0.523-0.234,0.523-0.522v-1.499h9.551v19.974c0,0.289,0.234,0.522,0.522,0.522c0.289,0,0.523-0.233,0.523-0.522V10.98
			C17.195,10.691,16.961,10.458,16.672,10.458z M8.403,5.168L8.403,5.168l2.971-1.603l2.97,1.603v0.739H8.403V5.168z M15.081,10.458
			h-1.127V8.331c0-0.289-0.234-0.523-0.523-0.523s-0.523,0.234-0.523,0.523v2.126h-1.011V8.331c0-0.289-0.234-0.523-0.523-0.523
			s-0.523,0.234-0.523,0.523v2.126H9.84V8.331c0-0.289-0.234-0.523-0.523-0.523S8.794,8.042,8.794,8.331v2.126H7.667V6.953h7.415
			L15.081,10.458L15.081,10.458z"/>
	</g>
</g>
<g opacity="0.3">
	<g>
		<path d="M25.924,12.853h-0.465V11.75c0-0.289-0.232-0.523-0.521-0.523h-1.769V7.982c0-0.289-0.233-0.523-0.522-0.523
			s-0.522,0.234-0.522,0.523v3.245h-1.769c-0.289,0-0.521,0.234-0.521,0.523v1.103h-0.511c-0.289,0-0.523,0.234-0.523,0.523v18.101
			c0,0.289,0.234,0.523,0.523,0.523c0.288,0,0.521-0.234,0.521-0.523v-1.582h5.559v1.582c0,0.289,0.233,0.523,0.521,0.523
			c0.289,0,0.523-0.234,0.523-0.523V13.376C26.447,13.087,26.213,12.853,25.924,12.853z M20.879,12.273h3.535v0.58h-3.535V12.273z
			 M19.844,13.899h5.559v1.06h-5.559V13.899z M19.844,17.988h0.572c0.289,0,0.523-0.233,0.523-0.522
			c0-0.288-0.234-0.522-0.523-0.522h-0.572v-0.938h5.559v0.938H22.16c-0.288,0-0.521,0.234-0.521,0.522
			c0,0.289,0.233,0.522,0.521,0.522h3.242v0.938h-5.559V17.988L19.844,17.988z M25.402,28.85h-5.559V27.91h5.559V28.85z
			 M25.402,26.864h-5.559v-0.938h5.559V26.864z M25.402,22.896H24.9c-0.287,0-0.521,0.233-0.521,0.521
			c0,0.289,0.234,0.523,0.521,0.523h0.502v0.938h-5.559v-0.938h3.313c0.288,0,0.522-0.234,0.522-0.522
			c0-0.289-0.234-0.522-0.522-0.522h-3.313v-0.938h5.559V22.896z M25.402,20.912h-5.559v-0.939h5.559V20.912z"/>
	</g>
</g>
<g opacity="0.3">
	<g>
		<path d="M7.776,12.34c-0.289,0-0.523,0.234-0.523,0.523v1.115c0,0.289,0.234,0.523,0.523,0.523s0.523-0.234,0.523-0.523v-1.115
			C8.299,12.574,8.065,12.34,7.776,12.34z"/>
	</g>
</g>
<g opacity="0.3">
	<g>
		<path d="M9.575,12.34c-0.289,0-0.523,0.234-0.523,0.523v1.115c0,0.289,0.234,0.523,0.523,0.523s0.523-0.234,0.523-0.523v-1.115
			C10.098,12.574,9.864,12.34,9.575,12.34z"/>
	</g>
</g>
<g opacity="0.3">
	<g>
		<path d="M14.971,12.34c-0.289,0-0.523,0.234-0.523,0.523v1.115c0,0.289,0.234,0.523,0.523,0.523c0.289,0,0.523-0.234,0.523-0.523
			v-1.115C15.494,12.574,15.26,12.34,14.971,12.34z"/>
	</g>
</g>
<g opacity="0.3">
	<g>
		<path d="M13.172,12.34c-0.289,0-0.522,0.234-0.522,0.523v1.115c0,0.289,0.234,0.523,0.522,0.523c0.289,0,0.523-0.234,0.523-0.523
			v-1.115C13.695,12.574,13.461,12.34,13.172,12.34z"/>
	</g>
</g>
<g opacity="0.3">
	<g>
		<path d="M11.374,12.34c-0.289,0-0.523,0.234-0.523,0.523v1.115c0,0.289,0.234,0.523,0.523,0.523s0.523-0.234,0.523-0.523v-1.115
			C11.897,12.574,11.663,12.34,11.374,12.34z"/>
	</g>
</g>
<g opacity="0.3">
	<g>
		<path d="M7.776,18.545c-0.289,0-0.523,0.234-0.523,0.521v1.117c0,0.287,0.234,0.521,0.523,0.521s0.523-0.234,0.523-0.521v-1.117
			C8.299,18.779,8.065,18.545,7.776,18.545z"/>
	</g>
</g>
<g opacity="0.3">
	<g>
		<path d="M9.575,18.545c-0.289,0-0.523,0.234-0.523,0.521v1.117c0,0.287,0.234,0.521,0.523,0.521s0.523-0.234,0.523-0.521v-1.117
			C10.098,18.779,9.864,18.545,9.575,18.545z"/>
	</g>
</g>
<g opacity="0.3">
	<g>
		<path d="M14.971,18.545c-0.289,0-0.523,0.234-0.523,0.521v1.117c0,0.287,0.234,0.521,0.523,0.521c0.289,0,0.523-0.234,0.523-0.521
			v-1.117C15.494,18.779,15.26,18.545,14.971,18.545z"/>
	</g>
</g>
<g opacity="0.3">
	<g>
		<path d="M13.172,18.545c-0.289,0-0.522,0.234-0.522,0.521v1.117c0,0.287,0.234,0.521,0.522,0.521c0.289,0,0.523-0.234,0.523-0.521
			v-1.117C13.695,18.779,13.461,18.545,13.172,18.545z"/>
	</g>
</g>
<g opacity="0.3">
	<g>
		<path d="M11.374,18.545c-0.289,0-0.523,0.234-0.523,0.521v1.117c0,0.287,0.234,0.521,0.523,0.521s0.523-0.234,0.523-0.521v-1.117
			C11.897,18.779,11.663,18.545,11.374,18.545z"/>
	</g>
</g>
<g opacity="0.3">
	<g>
		<path d="M7.776,24.75c-0.289,0-0.523,0.232-0.523,0.521v1.115c0,0.289,0.234,0.522,0.523,0.522s0.523-0.233,0.523-0.522v-1.115
			C8.299,24.982,8.065,24.75,7.776,24.75z"/>
	</g>
</g>
<g opacity="0.3">
	<g>
		<path d="M9.575,24.75c-0.289,0-0.523,0.232-0.523,0.521v1.115c0,0.289,0.234,0.522,0.523,0.522s0.523-0.233,0.523-0.522v-1.115
			C10.098,24.982,9.864,24.75,9.575,24.75z"/>
	</g>
</g>
<g opacity="0.3">
	<g>
		<path d="M14.971,24.75c-0.289,0-0.523,0.232-0.523,0.521v1.115c0,0.289,0.234,0.522,0.523,0.522c0.289,0,0.523-0.233,0.523-0.522
			v-1.115C15.494,24.982,15.26,24.75,14.971,24.75z"/>
	</g>
</g>
<g opacity="0.3">
	<g>
		<path d="M13.172,24.75c-0.289,0-0.522,0.232-0.522,0.521v1.115c0,0.289,0.234,0.522,0.522,0.522c0.289,0,0.523-0.233,0.523-0.522
			v-1.115C13.695,24.982,13.461,24.75,13.172,24.75z"/>
	</g>
</g>
<g opacity="0.3">
	<g>
		<path d="M11.374,24.75c-0.289,0-0.523,0.232-0.523,0.521v1.115c0,0.289,0.234,0.522,0.523,0.522s0.523-0.233,0.523-0.522v-1.115
			C11.897,24.982,11.663,24.75,11.374,24.75z"/>
	</g>
</g>
<g opacity="0.3">
	<g>
		<path d="M7.776,27.852c-0.289,0-0.523,0.234-0.523,0.523v1.115c0,0.289,0.234,0.523,0.523,0.523s0.523-0.234,0.523-0.523v-1.115
			C8.299,28.086,8.065,27.852,7.776,27.852z"/>
	</g>
</g>
<g opacity="0.3">
	<g>
		<path d="M9.575,27.852c-0.289,0-0.523,0.234-0.523,0.523v1.115c0,0.289,0.234,0.523,0.523,0.523s0.523-0.234,0.523-0.523v-1.115
			C10.098,28.086,9.864,27.852,9.575,27.852z"/>
	</g>
</g>
<g opacity="0.3">
	<g>
		<path d="M14.971,27.852c-0.289,0-0.523,0.234-0.523,0.523v1.115c0,0.289,0.234,0.523,0.523,0.523c0.289,0,0.523-0.234,0.523-0.523
			v-1.115C15.494,28.086,15.26,27.852,14.971,27.852z"/>
	</g>
</g>
<g opacity="0.3">
	<g>
		<path d="M13.172,27.852c-0.289,0-0.522,0.234-0.522,0.523v1.115c0,0.289,0.234,0.523,0.522,0.523c0.289,0,0.523-0.234,0.523-0.523
			v-1.115C13.695,28.086,13.461,27.852,13.172,27.852z"/>
	</g>
</g>
<g opacity="0.3">
	<g>
		<path d="M11.374,27.852c-0.289,0-0.523,0.234-0.523,0.523v1.115c0,0.289,0.234,0.523,0.523,0.523s0.523-0.234,0.523-0.523v-1.115
			C11.897,28.086,11.663,27.852,11.374,27.852z"/>
	</g>
</g>
<g opacity="0.3">
	<g>
		<path d="M7.776,15.442c-0.289,0-0.523,0.234-0.523,0.523v1.115c0,0.289,0.234,0.523,0.523,0.523s0.523-0.234,0.523-0.523v-1.115
			C8.299,15.676,8.065,15.442,7.776,15.442z"/>
	</g>
</g>
<g opacity="0.3">
	<g>
		<path d="M9.575,15.442c-0.289,0-0.523,0.234-0.523,0.523v1.115c0,0.289,0.234,0.523,0.523,0.523s0.523-0.234,0.523-0.523v-1.115
			C10.098,15.676,9.864,15.442,9.575,15.442z"/>
	</g>
</g>
<g opacity="0.3">
	<g>
		<path d="M14.971,15.442c-0.289,0-0.523,0.234-0.523,0.523v1.115c0,0.289,0.234,0.523,0.523,0.523c0.289,0,0.523-0.234,0.523-0.523
			v-1.115C15.494,15.676,15.26,15.442,14.971,15.442z"/>
	</g>
</g>
<g opacity="0.3">
	<g>
		<path d="M13.172,15.442c-0.289,0-0.522,0.234-0.522,0.523v1.115c0,0.289,0.234,0.523,0.522,0.523c0.289,0,0.523-0.234,0.523-0.523
			v-1.115C13.695,15.676,13.461,15.442,13.172,15.442z"/>
	</g>
</g>
<g opacity="0.3">
	<g>
		<path d="M11.374,15.442c-0.289,0-0.523,0.234-0.523,0.523v1.115c0,0.289,0.234,0.523,0.523,0.523s0.523-0.234,0.523-0.523v-1.115
			C11.897,15.676,11.663,15.442,11.374,15.442z"/>
	</g>
</g>
<g opacity="0.3">
	<g>
		<path d="M7.776,21.646c-0.289,0-0.523,0.233-0.523,0.522v1.115c0,0.289,0.234,0.522,0.523,0.522s0.523-0.233,0.523-0.522V22.17
			C8.299,21.881,8.065,21.646,7.776,21.646z"/>
	</g>
</g>
<g opacity="0.3">
	<g>
		<path d="M9.575,21.646c-0.289,0-0.523,0.233-0.523,0.522v1.115c0,0.289,0.234,0.522,0.523,0.522s0.523-0.233,0.523-0.522V22.17
			C10.098,21.881,9.864,21.646,9.575,21.646z"/>
	</g>
</g>
<g opacity="0.3">
	<g>
		<path d="M14.971,21.646c-0.289,0-0.523,0.233-0.523,0.522v1.115c0,0.289,0.234,0.522,0.523,0.522c0.289,0,0.523-0.233,0.523-0.522
			V22.17C15.494,21.881,15.26,21.646,14.971,21.646z"/>
	</g>
</g>
<g opacity="0.3">
	<g>
		<path d="M13.172,21.646c-0.289,0-0.522,0.233-0.522,0.522v1.115c0,0.289,0.234,0.522,0.522,0.522c0.289,0,0.523-0.233,0.523-0.522
			V22.17C13.695,21.881,13.461,21.646,13.172,21.646z"/>
	</g>
</g>
<g opacity="0.3">
	<g>
		<path d="M11.374,21.646c-0.289,0-0.523,0.233-0.523,0.522v1.115c0,0.289,0.234,0.522,0.523,0.522s0.523-0.233,0.523-0.522V22.17
			C11.897,21.881,11.663,21.646,11.374,21.646z"/>
	</g>
</g>
</svg>
