<?xml version="1.0" encoding="utf-8"?>
<!-- Generator: Adobe Illustrator 16.0.0, SVG Export Plug-In . SVG Version: 6.00 Build 0)  -->
<!DOCTYPE svg PUBLIC "-//W3C//DTD SVG 1.1//EN" "http://www.w3.org/Graphics/SVG/1.1/DTD/svg11.dtd">
<svg version="1.1" id="Alien_Invasion" opacity="0.3"
	 xmlns="http://www.w3.org/2000/svg" xmlns:xlink="http://www.w3.org/1999/xlink" x="0px" y="0px" width="1200px" height="1200px"
	 viewBox="0 0 1200 1200" enable-background="new 0 0 1200 1200" xml:space="preserve">
<g id="Stars">
	<path fill="#F5F5F5" d="M1008.365,713.181c-2.168,0.192-0.918-24.116-5.405-28.618c-4.483-4.501-28.787-3.294-28.604-5.444
		c0.163-1.942,22.93-3.489,27.538-8.084c4.611-4.594,6.282-27.372,8.245-27.516c2.127-0.154,1.888,23.332,6.227,27.689
		c4.338,4.354,27.773,4.032,27.681,6.075c-0.094,2.042-23.408,3.135-28.12,7.831
		C1011.212,689.812,1010.286,713.014,1008.365,713.181z"/>
	<path fill="#F5F5F5" d="M916.049,187.251c-1.785,0.158-0.755-19.84-4.445-23.543c-3.689-3.703-23.681-2.71-23.531-4.478
		c0.134-1.597,18.86-2.871,22.652-6.649c3.794-3.78,5.168-22.518,6.783-22.635c1.75-0.128,1.552,19.192,5.121,22.775
		c3.57,3.583,22.847,3.317,22.771,4.998c-0.077,1.681-19.255,2.58-23.133,6.443C918.391,168.026,917.63,187.111,916.049,187.251z"/>
	<path fill="#F5F5F5" d="M870.339,193.218c-1.078,0.095-0.457-11.985-2.687-14.223c-2.227-2.237-14.304-1.638-14.215-2.706
		c0.08-0.964,11.395-1.733,13.687-4.017c2.29-2.283,3.122-13.604,4.096-13.674c1.06-0.078,0.938,11.595,3.095,13.76
		c2.158,2.164,13.803,2.004,13.756,3.019c-0.047,1.016-11.631,1.559-13.975,3.893C871.753,181.604,871.296,193.134,870.339,193.218z
		"/>
	<path fill="#F5F5F5" d="M167.766,420.033c-2.489,0.22-1.055-27.681-6.203-32.85c-5.149-5.165-33.041-3.781-32.831-6.247
		c0.185-2.229,26.315-4.004,31.604-9.279c5.292-5.272,7.212-31.417,9.463-31.582c2.443-0.178,2.165,26.78,7.145,31.779
		c4.98,5,31.877,4.629,31.771,6.973c-0.107,2.346-26.865,3.598-32.272,8.988C171.033,393.207,169.972,419.838,167.766,420.033z"/>
	<path fill="#F5F5F5" d="M353.783,219.612c-1.286,0.113-0.545-14.287-3.203-16.955c-2.657-2.665-17.053-1.952-16.944-3.224
		c0.095-1.15,13.582-2.067,16.312-4.789c2.731-2.721,3.722-16.215,4.884-16.301c1.261-0.091,1.117,13.822,3.687,16.403
		c2.572,2.581,16.455,2.389,16.399,3.599s-13.867,1.857-16.658,4.639C355.467,205.767,354.921,219.511,353.783,219.612z"/>
	<path fill="#F5F5F5" d="M400.465,597.449c-1.793,0.158-0.76-19.943-4.469-23.667c-3.71-3.722-23.806-2.725-23.653-4.501
		c0.133-1.605,18.959-2.884,22.77-6.685c3.813-3.798,5.196-22.635,6.818-22.753c1.76-0.128,1.56,19.295,5.147,22.896
		c3.588,3.602,22.967,3.336,22.891,5.024c-0.077,1.69-19.356,2.592-23.251,6.476C402.819,578.122,402.055,597.308,400.465,597.449z"
		/>
</g>
<g id="Ground">
	<path fill="#8B8B8B" d="M709.299,810.115c-39.156-10.065-80.199-15.428-122.495-15.428c-167.266,0-314.975,83.729-403.503,211.56
		h455.742h351.266C924.165,910.741,824.984,839.86,709.299,810.115z"/>
	<path fill="#B9B9B9" d="M183.301,1006.247h455.742c0.249-0.299,0.507-0.586,0.753-0.885
		c47.199-56.859,69.931-126.087,69.503-195.247c-39.156-10.065-80.199-15.428-122.495-15.428
		C419.538,794.688,271.829,878.416,183.301,1006.247z"/>
</g>
<g>
	<path fill-rule="evenodd" clip-rule="evenodd" fill="#393939" d="M891.825,740.111c5.586-1.906,11.235-2.149,16.859-0.065
		c9.52,3.528,15.55,10.635,18.177,21.108c0.052,0.209-0.016,0.48,0.237,0.604c0.212,1.964,0.426,3.931,0.637,5.895
		c-0.07,0.719,0.028,1.436,0.039,2.152c0.072,4.816-1.388,9.132-3.629,13.151c-2.753,4.934-6.576,8.621-11.405,11.115
		c-1.734,0.896-3.56,1.367-5.445,1.667c-0.18,0.028-0.382-0.023-0.529,0.143c-1.925,0.209-3.85,0.416-5.774,0.624
		c-1.012-0.323-2.061-0.224-3.09-0.362c-11.264-1.522-20.63-10.695-23.118-22.676c-2.393-11.526,1.667-23.03,10.499-29.741
		c0.37-0.28,0.767-0.52,1.151-0.776c0.403-0.078,0.597,0.208,0.741,0.532c1.106,2.472,2.22,4.939,3.313,7.417
		c0.162,0.369,0.177,0.732-0.039,1.076c-0.152,0.467-0.534,0.706-0.854,1.004c-3.503,3.27-5.637,7.367-6.028,12.397
		c-0.513,6.577,1.608,12.089,6.326,16.436c3.093,2.851,6.699,4.383,10.698,4.403c7.477,0.041,12.909-3.62,16.133-10.869
		c1.438-3.23,1.749-6.679,1.275-10.262c-0.686-5.18-2.996-9.331-6.836-12.485c-3.255-2.674-6.945-3.951-11.039-3.853
		c-1.305,0.032-2.541,0.384-3.822,0.49c-0.743-0.049-1.106-0.549-1.402-1.235c-0.954-2.215-1.964-4.401-2.937-6.607
		C891.79,741.002,891.479,740.578,891.825,740.111z"/>
	<path fill-rule="evenodd" clip-rule="evenodd" fill="#393939" d="M809.383,783.455c-0.139,2.747-0.764,5.376-1.754,7.874
		c-3.674,9.258-10.096,14.981-19.241,17.147c-0.173,0.04-0.391-0.016-0.479,0.229c-0.105,0.012-0.214,0.022-0.32,0.033
		c-0.351-0.138-0.69,0.028-1.036,0.024c-0.441,0.048-0.886,0.096-1.329,0.145c-0.385,0.082-0.804-0.011-1.164,0.211
		c-0.107,0.012-0.214,0.025-0.32,0.036c-1.025-0.084-2.046,0.016-3.064,0.04c-2,0.046-3.904-0.487-5.774-1.146
		c-6.032-2.13-10.859-6.075-14.495-11.694c-1.888-2.917-3.245-6.103-3.674-9.662c-0.019-0.142-0.009-0.292-0.123-0.397
		c-0.237-2.199-0.474-4.396-0.712-6.592c0.323-0.96,0.188-1.984,0.281-2.976c1.334-14.135,12.018-24.957,25.226-25.409
		c8.727-0.297,15.954,3.316,21.745,10.436c0.268,0.326,0.488,0.694,0.731,1.042c0.172,0.401-0.074,0.592-0.332,0.756
		c-2.2,1.396-4.37,2.85-6.589,4.214c-0.259,0.158-0.525,0.283-0.837,0.174c-0.669-0.26-1.059-0.898-1.552-1.389
		c-2.175-2.167-4.652-3.752-7.517-4.501c-7.088-1.854-13.085,0.197-17.756,6.044c-2.79,3.493-4.015,7.747-3.839,12.458
		c0.207,5.514,2.308,10.091,6.122,13.718c2.997,2.854,6.583,4.392,10.567,4.594c5.592,0.285,10.262-1.9,13.916-6.355
		c2.528-3.086,3.851-6.81,4.082-10.974c0.021-0.404,0.07-0.808,0.046-1.218c-0.01-0.421-0.051-0.853,0.256-1.188
		c0.056-0.074,0.129-0.119,0.215-0.146c0.285-0.032,0.452,0.168,0.582,0.392c0.535,0.912,1.356,1.295,2.277,1.518
		c1.656,0.395,3.274,0.954,4.922,1.389C808.976,782.422,809.624,782.553,809.383,783.455z"/>
	<path fill-rule="evenodd" clip-rule="evenodd" fill="#494949" d="M891.825,740.111c1.173,2.618,2.352,5.235,3.513,7.861
		c0.214,0.479,0.438,0.876,1.008,0.797c0.559,2.11,1.703,3.951,2.448,5.977c1.047,2.096,1.86,4.319,2.999,6.365
		c0.49,1.612,1.284,3.073,1.942,4.599c0.96,2.235,0.037,4.622-2.083,5.287c-1.472,0.461-3.15-0.335-3.928-1.973
		c-0.674-1.424-1.356-2.853-1.913-4.337c-0.064-0.164-0.127-0.318-0.233-0.454c-0.969-2.106-1.945-4.207-2.782-6.381
		c-1.003-1.925-1.916-3.896-2.624-5.971c0.094-0.288,0.067-0.568-0.057-0.843c-1.228-2.697-2.455-5.394-3.682-8.09
		c-1.487-3.49-2.979-6.978-4.674-10.36c-0.414-0.126-0.573-0.502-0.738-0.87c-1.813-4.043-3.619-8.085-5.42-12.133
		c-0.16-0.356-0.259-0.701-0.078-1.076c-1.201-2.708-2.397-5.42-3.608-8.126c-0.337-0.753-0.921-1.007-1.673-0.916
		c-1.707,0.199-3.416,0.375-5.125,0.556c-1.737,0.183-3.037-0.586-3.537-2.083c-0.547-1.632-0.021-3.016,1.547-4.078
		c0.044-0.031,0.072-0.084,0.107-0.126c2.568-0.275,5.132-0.554,7.698-0.829c1.488,0.285,2.925,0.705,4.147,1.753
		c0.992,0.852,1.75,1.89,2.299,3.12c0.58,1.307,1.196,2.601,1.798,3.899c0.376,0.245,0.665,0.563,0.859,1.007
		c2.73,6.21,5.548,12.374,8.279,18.581c0.208,0.469,0.458,0.938,0.284,1.489C889.676,735.209,890.75,737.66,891.825,740.111z"/>
	<path fill-rule="evenodd" clip-rule="evenodd" fill="#6C6C6C" d="M785.154,808.845c0.488-0.051,0.979-0.104,1.468-0.16
		c0.116,0.055,0.115,0.105,0.003,0.158c-0.48,0.053-0.961,0.103-1.443,0.156C785.062,808.97,785.051,808.92,785.154,808.845z"/>
	<path fill-rule="evenodd" clip-rule="evenodd" fill="#9D9D9D" d="M785.154,808.845c0.01,0.053,0.021,0.103,0.027,0.154
		c-0.374,0.042-0.747,0.079-1.122,0.12C784.365,808.776,784.783,808.916,785.154,808.845z"/>
	<path fill-rule="evenodd" clip-rule="evenodd" fill="#9D9D9D" d="M786.625,808.843c-0.002-0.053-0.003-0.104-0.003-0.158
		c0.323-0.014,0.652-0.196,0.967,0.055C787.266,808.774,786.946,808.81,786.625,808.843z"/>
	<path fill-rule="evenodd" clip-rule="evenodd" fill="#5A5A5A" d="M815.112,755.592c-1.639-2.749-3.273-5.498-4.911-8.25
		c-0.006-0.351,0.194-0.52,0.475-0.599c2.945-0.814,5.551-2.484,8.33-3.717c0.503-0.222,0.966-0.633,1.578-0.476
		c0.283,0.239,0.474,0.555,0.626,0.896c0.923,2.064,2.53,2.735,4.516,2.678c0.571-0.018,1.16-0.302,1.718,0.106
		c0.282,0.612-0.205,0.759-0.521,0.957c-1.278,0.807-1.939,2.003-2.036,3.6c-0.107,1.822,0.881,3.514,2.526,4.286
		c1.489,0.702,3.367,0.288,4.446-0.974c1.979-2.322,1.3-5.701-1.426-7.089c-0.269-0.14-0.562-0.218-0.825-0.36
		c-0.376-0.202-0.459-0.479-0.112-0.806c0.223-0.115,0.458-0.166,0.7-0.192c3.707-0.41,7.411-0.854,11.129-1.178
		c0.595,0.125,0.894,0.597,1.132,1.137c0.669,1.526,1.35,3.053,1.981,4.6c0.945,2.312,2.535,3.614,4.857,3.943
		c2.371,0.336,4.738,0.74,7.106,1.113c0.536,0.083,1.059,0.185,1.527,0.511c0.225,0.239,0.185,0.538,0.133,0.817
		c-0.461,2.548-0.942,5.092-1.481,7.623c-0.041,0.195-0.102,0.39-0.257,0.521c-0.355,0.234-0.608-0.003-0.856-0.237
		c-1.721-1.619-3.73-2.513-5.939-3.013c-3.691-0.836-7.362-1.773-11.043-2.667c-0.5-0.12-1.009-0.246-1.518-0.122
		c-1.133,0.275-1.811,1.052-2,2.291c-0.096,0.62-0.365,1.063-0.9,1.308c-4.209-0.192-7.641,3.521-7.112,8.348
		c0.473,4.323,3.626,6.833,7.347,6.805c3.516-0.03,6.413-3.135,6.668-6.977c0.098-1.447-0.266-2.758-0.796-4.05
		c-0.144-0.343-0.366-0.669-0.142-1.063c0.248-0.391,0.615-0.304,0.952-0.226c2.821,0.649,5.652,1.274,8.445,2.064
		c4.54,1.283,6.107,7.07,3.114,10.658c-0.952,1.144-2.143,1.895-3.602,2.055c-6.115,0.674-12.229,1.37-18.353,1.959
		c-1.986,0.192-3.972-0.181-5.915-0.731c-4.907-1.39-9.817-2.775-14.716-4.207c-0.351-0.102-0.768-0.122-0.938-0.586
		c-0.617-2.342-1.095-4.726-1.983-6.979c-0.107-0.27-0.163-0.553-0.169-0.844c-0.052-0.595,0.401-0.779,0.749-1.006
		c2.371-1.541,4.761-3.06,7.134-4.599c1.87-1.215,3.773-2.377,5.624-3.63c1.255-0.852,1.601-2.352,0.902-3.689
		c-0.694-1.329-2.082-1.812-3.416-1.191c-0.616,0.291-1.146,0.73-1.729,1.079C815.818,755.68,815.492,755.96,815.112,755.592z"/>
	<path fill-rule="evenodd" clip-rule="evenodd" fill="#494949" d="M820.544,742.728c-3.425,1.597-6.673,3.641-10.343,4.614
		c-2.675,0.411-5.285-0.026-7.912-0.682c-8.199-2.044-16.417-4.002-24.627-6c-2.488-0.606-4.031-2.467-4.301-5.141
		c-0.24-2.367,0.98-4.605,3-5.604c1.197-0.591,2.465-0.479,3.722-0.481c7.473-0.008,14.944-0.002,22.416,0.003
		c7.849,0.007,15.698,0.016,23.545,0.028c1.693,0.001,3.388,0.011,5.081,0.017c0.382,0.217,0.316,0.585,0.24,0.916
		c-0.473,2.045-0.029,3.891,1.07,5.611c0.165,0.257,0.386,0.506,0.328,0.864c-0.114,0.437-0.447,0.623-0.791,0.793
		c-3.452,1.704-6.914,3.387-10.381,5.058C821.252,742.886,820.9,743.085,820.544,742.728z"/>
	<path fill-rule="evenodd" clip-rule="evenodd" fill="#848484" d="M832.547,736.89c-1.732-2.211-2.172-4.687-1.422-7.408
		c0.317-0.532,0.604-1.09,0.961-1.585c0.881-1.225,2.066-1.966,3.455-2.354c7.615-2.125,15.234-4.251,22.848-6.374
		c1.063-0.295,2.133-0.564,3.187-0.89c2.481-0.761,4.832-0.404,7.069,1.021c0.791,0.107,1.38,0.552,1.906,1.193
		c1.182,1.435,1.941,3.077,2.333,4.93c0.282,3.799-0.644,7.035-3.628,9.296c-1.019,0.769-2.145,1.297-3.399,1.438
		c-1.466,0.163-2.928,0.375-4.403,0.457c-7.966,0.921-15.944,1.729-23.913,2.608c-1.721,0.19-3.244-0.29-4.555-1.55
		C832.765,737.461,832.509,737.268,832.547,736.89z"/>
	<path fill-rule="evenodd" clip-rule="evenodd" fill="#494949" d="M815.112,755.592c0.881-0.537,1.736-1.127,2.646-1.603
		c1.406-0.737,3.038-0.146,3.842,1.317c0.915,1.668,0.419,3.465-1.205,4.507c-4.441,2.852-8.873,5.718-13.31,8.576
		c-0.177,0.518-0.553,0.826-0.973,1.099c-2.191,1.431-4.413,2.809-6.608,4.232c-1.713,1.07-3.345,2.282-5.137,3.208
		c-0.981,0.842-2.109,1.438-3.188,2.112c-0.804,0.501-1.534,1.125-2.351,1.604c-1.491,0.783-2.854,1.799-4.293,2.674
		c-1.7,1.035-3.675,0.481-4.691-1.351c-0.94-1.697-0.427-3.926,1.218-4.994c0.985-0.636,1.943-1.322,2.958-1.905
		c0.397-0.232,0.813-0.446,1.125-0.816c1.89-0.995,3.594-2.342,5.476-3.356c0.121-0.064,0.208-0.178,0.303-0.277
		c1.376-0.861,2.758-1.716,4.097-2.643c0.361-0.253,0.762-0.19,1.127-0.339c1.31-0.474,2.376-1.409,3.552-2.136
		c1.411-0.871,2.787-1.801,4.18-2.705C807.624,760.396,811.369,757.993,815.112,755.592z"/>
	<path fill-rule="evenodd" clip-rule="evenodd" fill="#393939" d="M872.4,725.363c-0.463-2.581-1.759-4.571-3.756-6.063
		c2.295-0.263,4.587-0.525,6.879-0.791c2.011,4.476,4.021,8.947,6.025,13.42c0.094,0.209,0.143,0.439,0.211,0.659
		c-1.957,1.336-3.914,2.675-5.872,4.012c-0.691,0.086-0.677-0.579-0.804-0.98c-0.561-1.732-1.014-3.51-1.599-5.229
		C872.924,728.753,872.807,727.027,872.4,725.363z"/>
	<path fill-rule="evenodd" clip-rule="evenodd" fill="#494949" d="M809.229,776.227c2.186,0.645,4.363,1.317,6.557,1.93
		c3.476,0.968,6.915,2.097,10.428,2.893c1.825,0.413,3.671,0.516,5.536,0.306c5.578-0.631,11.164-1.212,16.746-1.818
		c2.978-0.325,4.913-2.503,5.166-5.697c0.17-2.142-1.209-5.384-4.227-6.184c-2.936-0.778-5.893-1.455-8.841-2.169
		c-0.122-0.03-0.262,0.021-0.396,0.033c-0.355,0.225-0.544-0.06-0.737-0.301c-1.329-1.658-2.931-2.749-4.995-2.9
		c-0.274-0.021-0.553-0.09-0.505-0.509c0.421-0.065,0.527-0.366,0.591-0.787c0.332-2.151,1.741-3.173,3.707-2.7
		c4.108,0.988,8.212,1.998,12.32,2.989c2.171,0.524,4.012,1.688,5.599,3.359c0.366-0.122,0.615,0.093,0.842,0.358
		c1.44,1.689,2.29,3.699,2.792,5.894c0.094,0.408,0.05,0.799-0.232,1.125c0.544,6.632-2.781,11.924-8.561,13.611
		c-0.465,0.136-0.947,0.221-1.424,0.272c-5.96,0.642-11.919,1.297-17.884,1.899c-2.888,0.289-5.745-0.104-8.559-0.898
		c-4.308-1.22-8.612-2.457-12.92-3.677c-0.304-0.086-0.678-0.375-0.851,0.199c-0.097-0.492-0.475-0.597-0.838-0.701
		c-1.581-0.451-3.151-0.957-4.747-1.325c-1.384-0.319-2.541-0.896-3.188-2.344c-0.581-0.314-0.427-0.909-0.49-1.42
		c0.31-0.816,0.348-1.751,1.06-2.385c0.881-0.786,1.86-1.115,2.979-0.858c1.446,0.336,2.867,0.789,4.297,1.208
		C808.79,775.729,809.01,775.97,809.229,776.227z"/>
	<path fill-rule="evenodd" clip-rule="evenodd" fill="#696969" d="M859.58,772.048c-0.389-2.85-1.498-5.32-3.401-7.377
		c0.404-2.961,1.086-5.855,1.64-8.78c-0.451-0.305-0.331-0.753-0.251-1.173c0.771-3.927,1.466-7.872,2.325-11.777
		c0.025-0.113,0.027-0.229,0.036-0.342c0.309-1.771,0.675-3.526,1.013-5.292c0.08-0.434,0.234-0.812,0.577-1.076
		c1.251-0.144,2.504-0.293,3.759-0.431c4.537-0.496,7.701-4.742,7.193-9.656c-0.027-0.262-0.046-0.521-0.07-0.78
		c0.918,3.042,1.83,6.084,2.761,9.118c0.219,0.716,0.329,1.472,0.727,2.119c-0.005,0.6,0.26,1.126,0.408,1.683
		c0.463,1.717,0.43,3.393-0.33,4.987c-4.025,8.459-8.055,16.913-12.095,25.363C862.971,770.521,861.509,771.63,859.58,772.048z"/>
	<path fill-rule="evenodd" clip-rule="evenodd" fill="#848484" d="M888.6,732.757c-1.131-2.479-2.275-4.956-3.393-7.444
		c-1.968-4.377-3.917-8.759-5.871-13.143c-0.069-0.155-0.107-0.326-0.159-0.49c1.515-0.169,3.039-0.283,4.545-0.518
		c2.246-0.348,3.931,0.509,5.104,2.617c0.761,0.436,0.836,1.251,0.926,2.019c0.396,3.373,0.739,6.752,1.105,10.128
		c0.08,0.752,0.198,1.498,0.216,2.256c0.016,0.633,0.043,1.292-0.521,1.725C890.183,731.083,889.604,732.092,888.6,732.757z"/>
	<path fill-rule="evenodd" clip-rule="evenodd" fill="#D1D1D1" d="M890.552,729.906c0.129-0.892,0.128-1.783,0.028-2.685
		c-0.402-3.577-0.789-7.155-1.16-10.734c-0.097-0.933-0.279-1.834-0.595-2.708c2.562-0.201,4.442,1.093,5.723,3.369
		c1.449,2.57,1.763,5.361,0.868,8.207C894.626,727.87,893.054,729.479,890.552,729.906z"/>
	<path fill-rule="evenodd" clip-rule="evenodd" fill="#494949" d="M800.614,780.313c-0.051-0.412-0.099-0.822-0.005-1.232
		C800.672,779.494,800.762,779.905,800.614,780.313z"/>
	<path fill-rule="evenodd" clip-rule="evenodd" fill="#929292" d="M898.447,754.841c3.238-0.535,6.297,0.012,9.026,2.101
		c4.047,3.099,5.831,7.388,5.147,12.59c-0.688,5.219-3.54,8.723-8.21,10.266c-4.967,1.643-10.31-0.472-13.235-5.028
		c-3.037-4.735-2.938-10.779,0.254-15.289c0.475-0.663,1.005-1.271,1.622-1.783c0.979,2.092,1.977,4.173,2.785,6.347
		c0.032,0.49-0.097,0.944-0.222,1.402c-1.139,4.146,1.412,7.915,5.429,8.033c2.748,0.081,5.209-2.454,5.363-5.529
		c0.14-2.75-1.417-5.225-3.842-6.141c-0.365-0.136-0.834-0.116-0.984-0.648c-0.271-0.148-0.484-0.342-0.621-0.654
		C900.13,758.616,899.285,756.73,898.447,754.841z"/>
	<path fill-rule="evenodd" clip-rule="evenodd" fill="#393939" d="M901.581,761.16c2.686,0.313,4.955,2.778,5.246,5.705
		c0.304,3.048-1.468,5.982-4.153,6.786c-2.378,0.712-4.496,0.106-6.179-1.892c-1.663-1.977-1.957-4.282-1.169-6.748
		c0.112-0.355,0.26-0.695,0.511-0.969c0.829,1.479,1.45,3.066,2.151,4.613c0.71,1.57,2.171,2.358,3.519,1.935
		c1.897-0.598,2.749-2.683,1.882-4.639c-0.559-1.264-1.149-2.515-1.695-3.786C901.563,761.862,901.199,761.537,901.581,761.16z"/>
	<path fill-rule="evenodd" clip-rule="evenodd" fill="#393939" d="M861.519,736.23c-0.325,2.16-0.777,4.289-1.226,6.419
		c-0.29,0.39-0.701,0.496-1.135,0.547c-5.445,0.607-10.893,1.189-16.34,1.771c-0.437,0.046-0.85-0.099-1.273-0.126
		c-4.065,0.445-8.131,0.889-12.197,1.331c-0.582,0.606-1.2,0.676-1.906,0.209c-0.751,0.069-1.499,0.194-2.248,0.192
		c-2.328-0.014-3.937-1.368-4.649-3.846c4-1.945,8.002-3.893,12.003-5.838c0.243,0.183,0.499,0.35,0.73,0.55
		c1.295,1.125,2.754,1.534,4.384,1.356C845.612,737.932,853.566,737.084,861.519,736.23z"/>
	<path fill-rule="evenodd" clip-rule="evenodd" fill="#393939" d="M833.962,761.81c0.447,0.062,0.896,0.104,1.342,0.187
		c2.107,0.391,3.617,1.771,4.896,3.523c1.226,2.363,1.6,4.792,0.693,7.357c-1.064,3.021-3.995,5.163-6.928,5.025
		c-3.434-0.162-6.184-2.456-7.154-5.81c-1.362-4.697,1.72-9.917,6.352-10.205C833.43,761.872,833.695,761.836,833.962,761.81z"/>
	<path fill-rule="evenodd" clip-rule="evenodd" fill="#494949" d="M841.545,744.841c0.345-0.267,0.76-0.247,1.155-0.291
		c5.866-0.635,11.729-1.268,17.593-1.9c-0.763,3.986-1.53,7.974-2.287,11.96c-0.081,0.425-0.126,0.854-0.188,1.281
		c-3.234-0.432-6.469-0.871-9.668-1.556c-1.831-0.39-3.097-1.715-3.897-3.531c-0.731-1.661-1.438-3.333-2.157-5.001
		C841.948,745.459,841.82,745.101,841.545,744.841z"/>
	<path fill-rule="evenodd" clip-rule="evenodd" fill="#929292" d="M827.441,746.381c0.635-0.068,1.271-0.139,1.906-0.209
		c1.894,0.479,3.3,1.555,3.896,3.656c0.639,2.248-0.566,4.86-2.656,5.734c-2.05,0.857-4.588-0.165-5.57-2.245
		c-1.223-2.594-0.417-5.345,1.94-6.635C827.122,746.593,827.28,746.483,827.441,746.381z"/>
	<path fill-rule="evenodd" clip-rule="evenodd" fill="#393939" d="M800.451,777.525c-0.355-1.371-0.543-2.79-1.089-4.106
		c1.671-1.34,3.545-2.328,5.311-3.508c0.791-0.529,1.607-1.015,2.413-1.521c0.992,2.531,1.841,5.102,2.144,7.837
		c-1.672-0.453-3.341-0.906-5.015-1.356c-1.181-0.315-2.156,0.082-3.002,0.964C800.768,776.302,800.701,776.961,800.451,777.525z"/>
	<path fill-rule="evenodd" clip-rule="evenodd" fill="#696969" d="M869.576,726.438c0.348,3.071-1.731,5.909-4.567,6.229
		c-2.829,0.32-5.498-1.985-5.845-5.048c-0.344-3.041,1.803-5.928,4.617-6.215C866.582,721.117,869.236,723.424,869.576,726.438z"/>
	<path fill-rule="evenodd" clip-rule="evenodd" fill="#929292" d="M794.213,776.644c1.92,7.699-2.178,14.9-9.422,16.182
		c-6.713,1.188-12.675-3.926-13.678-10.601c-1.097-7.301,2.872-13.438,9.581-14.749c3.528-0.691,6.778,0.337,9.615,2.833
		c0.27,0.24,0.557,0.46,0.835,0.688c-1.659,1.069-3.316,2.14-4.976,3.21c-0.253,0.161-0.514,0.303-0.827,0.232
		c-0.422,0.234-0.834,0.052-1.252-0.045c-3.086-0.718-5.907,1.156-6.627,4.397c-0.551,2.487,0.379,4.938,2.441,6.433
		c1.835,1.328,4.425,1.283,6.215-0.115c1.123-0.875,1.875-2.015,2.162-3.507c0.082-0.432,0.042-0.949,0.491-1.213
		c0.138-0.329,0.396-0.522,0.673-0.699C791.034,778.677,792.623,777.662,794.213,776.644z"/>
	<path fill-rule="evenodd" clip-rule="evenodd" fill="#393939" d="M788.772,780.39c0.062,3.253-2.39,6.098-5.39,6.26
		c-3.212,0.174-6.015-2.285-6.412-5.601c-0.309-2.577,0.51-4.653,2.417-6.104c1.827-1.391,3.86-1.559,5.954-0.506
		c-0.082,0.383-0.387,0.536-0.656,0.711c-1.054,0.683-2.103,1.371-3.174,2.02c-1.413,0.862-1.972,2.163-1.603,3.863
		c0.301,1.407,1.396,2.271,2.96,2.371c0.603,0.039,1.092-0.23,1.576-0.541c1.22-0.775,2.439-1.552,3.657-2.33
		C788.312,780.4,788.513,780.248,788.772,780.39z"/>
</g>
<g id="Building">
	<path fill="#373737" d="M563.866,670.775c0.878-4.003-1-7.816-4.195-8.519l-228.885-50.214c-3.195-0.7-6.497,1.977-7.375,5.981
		l-9.382,42.765c-0.877,4.003,1,7.816,4.195,8.517l228.886,50.215c3.194,0.701,6.497-1.976,7.375-5.979L563.866,670.775z"/>
	<path fill="#6F6F6F" d="M526.212,842.412c-0.626,2.854-3.449,4.661-6.302,4.034l-230.119-50.484
		c-2.855-0.626-4.66-3.448-4.035-6.304l29.105-132.665c0.625-2.854,3.447-4.661,6.302-4.035l230.119,50.485
		c2.854,0.626,4.661,3.448,4.034,6.303L526.212,842.412z"/>
	<g>
		<path fill="#E5E5E5" d="M402.439,690.204l-65.041-14.269c-2.854-0.627-5.685,1.22-6.322,4.123l-25.001,113.963
			c-0.638,2.905,1.159,5.767,4.015,6.394l65.04,14.269c2.855,0.626,5.685-1.221,6.322-4.126l25.002-113.961
			C407.091,693.691,405.293,690.83,402.439,690.204z"/>
		<path fill="#C6C6C6" d="M337.398,675.936c-2.854-0.627-5.685,1.22-6.322,4.123l-25.001,113.963
			c-0.638,2.905,1.159,5.767,4.015,6.394l5.042,1.106l71.844-114.71L337.398,675.936z"/>
		<path fill="#363636" d="M369.282,805.839l-49.442-10.846c-3.959-0.868-6.473-4.797-5.604-8.755l5.601-25.528
			c0.868-3.96,4.795-6.474,8.755-5.605l49.442,10.847c3.959,0.869,6.473,4.797,5.604,8.757l-5.6,25.526
			C377.168,804.194,373.241,806.708,369.282,805.839z M327.541,759.892c-1.32-0.289-2.629,0.548-2.919,1.868l-5.6,25.527
			c-0.29,1.32,0.548,2.629,1.869,2.919l49.442,10.848c1.32,0.29,2.628-0.548,2.918-1.869l5.6-25.526
			c0.29-1.321-0.547-2.63-1.867-2.92L327.541,759.892z"/>
		<path fill="#8D8D8D" d="M395.573,695.854l-4.911-1.075l-12.003-2.635l-15.7-3.444l-21.167-4.644
			c-2.748-0.603-5.463,1.135-6.065,3.882l-5.44,24.797l-3.923,17.878l-2.927,13.341c-0.603,2.747,1.136,5.464,3.883,6.065
			l53.781,11.799c2.747,0.603,5.462-1.135,6.065-3.883l10.295-46.923l1.995-9.094C400.059,699.174,398.32,696.458,395.573,695.854z"
			/>
		<polygon opacity="0.5" fill="#CFCFCF" points="362.959,688.7 330.287,712.735 326.364,730.613 378.659,692.145 		"/>
		<path opacity="0.5" fill="#CFCFCF" d="M395.573,695.854l-4.911-1.075l-42.007,30.899c-3.684,2.712-4.473,7.894-1.763,11.576
			l0.324,0.441c2.711,3.684,7.893,4.472,11.576,1.763l38.669-28.446l1.995-9.094C400.059,699.174,398.32,696.458,395.573,695.854z"
			/>
		<path fill="#A0A0A0" d="M387.071,763.523c-0.208,0.953-1.235,1.537-2.292,1.306l0,0c-1.058-0.232-1.744-1.192-1.536-2.146
			l0.566-2.58c0.208-0.951,1.235-1.537,2.292-1.305l0,0c1.056,0.231,1.744,1.192,1.536,2.146L387.071,763.523z"/>
		<path fill="#A0A0A0" d="M360.352,757.662c-0.208,0.952-1.235,1.537-2.292,1.307l0,0c-1.057-0.232-1.744-1.194-1.535-2.146
			l0.566-2.58c0.208-0.951,1.235-1.537,2.292-1.306l0,0c1.057,0.232,1.745,1.193,1.536,2.146L360.352,757.662z"/>
		<path fill="#D8D8D8" d="M383.259,758.175l-9.672-2.122l-11.649-2.556c-1.665-0.364-3.311,0.688-3.675,2.353
			c-0.366,1.667,0.688,3.313,2.353,3.679l8.224,1.804l13.098,2.873c1.665,0.365,3.311-0.688,3.677-2.354
			C385.978,760.188,384.925,758.541,383.259,758.175z"/>
		<path fill="#C0C0C0" d="M385.613,761.852c0.365-1.664-0.688-3.311-2.354-3.677l-9.672-2.122l-4.748,5.279l13.098,2.873
			C383.602,764.57,385.248,763.517,385.613,761.852z"/>
	</g>
	
		<rect x="379.703" y="738.905" transform="matrix(0.9768 0.2142 -0.2142 0.9768 167.7234 -64.9983)" fill="#494949" width="8.119" height="4.937"/>
	
		<rect x="373.549" y="744.862" transform="matrix(0.9768 0.2143 -0.2143 0.9768 169.2622 -64.0072)" fill="#373737" width="12.614" height="7.667"/>
	
		<rect x="382.886" y="746.734" transform="matrix(0.9768 0.2141 -0.2141 0.9768 168.9312 -64.9333)" fill="#F5F5F5" width="2.838" height="1.728"/>
	<g>
		<path fill="#656565" d="M355.043,639.335c-0.225,1.026-1.239,1.676-2.267,1.45l-22.144-4.857
			c-1.026-0.227-1.676-1.239-1.451-2.267l1.381-6.298c0.226-1.027,1.241-1.677,2.267-1.452l22.144,4.858
			c1.027,0.226,1.676,1.24,1.451,2.267L355.043,639.335z"/>
		<path fill="#656565" d="M384.451,645.787c-0.225,1.025-1.24,1.675-2.267,1.449l-22.144-4.857
			c-1.027-0.226-1.676-1.239-1.451-2.266l1.381-6.299c0.225-1.026,1.239-1.676,2.266-1.451l22.144,4.859
			c1.027,0.225,1.676,1.239,1.452,2.265L384.451,645.787z"/>
		<path fill="#656565" d="M367.615,655.735c-0.226,1.026-1.24,1.676-2.267,1.451l-22.144-4.858
			c-1.027-0.226-1.676-1.239-1.451-2.267l1.381-6.298c0.225-1.026,1.24-1.676,2.267-1.451l22.145,4.859
			c1.026,0.225,1.676,1.238,1.451,2.266L367.615,655.735z"/>
		<path fill="#656565" d="M397.987,662.398c-0.224,1.027-1.24,1.676-2.266,1.451l-22.145-4.858c-1.026-0.226-1.675-1.24-1.45-2.267
			l1.381-6.298c0.226-1.026,1.24-1.676,2.266-1.45l22.144,4.858c1.027,0.225,1.677,1.239,1.452,2.267L397.987,662.398z"/>
		<path fill="#AFAFAF" d="M521.392,841.062c-0.226,1.028-1.24,1.677-2.267,1.452l-22.145-4.858c-1.026-0.224-1.677-1.24-1.451-2.267
			l1.381-6.299c0.225-1.025,1.241-1.676,2.267-1.449l22.145,4.857c1.027,0.226,1.676,1.239,1.451,2.268L521.392,841.062z"/>
		<path fill="#AFAFAF" d="M491.983,834.61c-0.225,1.026-1.24,1.677-2.266,1.452l-22.146-4.858c-1.026-0.226-1.676-1.241-1.45-2.267
			l1.382-6.299c0.225-1.026,1.239-1.676,2.266-1.449l22.146,4.857c1.026,0.225,1.676,1.239,1.451,2.266L491.983,834.61z"/>
		<path fill="#AFAFAF" d="M462.575,828.158c-0.225,1.027-1.24,1.677-2.267,1.453l-22.144-4.858
			c-1.026-0.226-1.676-1.241-1.451-2.268l1.382-6.299c0.226-1.025,1.24-1.676,2.266-1.45l22.144,4.857
			c1.027,0.227,1.677,1.24,1.451,2.268L462.575,828.158z"/>
		<path fill="#AFAFAF" d="M509.678,825.355c-0.225,1.026-1.24,1.677-2.266,1.45l-22.145-4.857c-1.026-0.225-1.676-1.241-1.451-2.267
			l1.381-6.299c0.225-1.026,1.241-1.676,2.267-1.45l22.145,4.858c1.026,0.225,1.676,1.238,1.451,2.267L509.678,825.355z"/>
		<path fill="#AFAFAF" d="M480.271,818.904c-0.225,1.025-1.24,1.677-2.267,1.45l-22.145-4.858c-1.026-0.225-1.676-1.24-1.451-2.266
			l1.381-6.299c0.226-1.027,1.241-1.676,2.267-1.45l22.144,4.857c1.027,0.225,1.677,1.241,1.451,2.267L480.271,818.904z"/>
		<path fill="#656565" d="M528.599,677.41c-0.225,1.028-1.24,1.675-2.267,1.451l-22.145-4.858c-1.026-0.226-1.676-1.24-1.451-2.266
			l1.382-6.3c0.225-1.025,1.238-1.676,2.266-1.451l22.145,4.859c1.027,0.226,1.677,1.239,1.452,2.268L528.599,677.41z"/>
		<path fill="#656565" d="M558.006,683.863c-0.225,1.025-1.239,1.674-2.266,1.449l-22.145-4.858
			c-1.026-0.226-1.677-1.239-1.452-2.266l1.382-6.299c0.225-1.026,1.241-1.676,2.267-1.45l22.145,4.857
			c1.027,0.226,1.676,1.24,1.451,2.268L558.006,683.863z"/>
	</g>
	<path fill="#1A1A1A" d="M573.074,667.191c-0.701,3.195-3.86,5.217-7.055,4.516l-246.192-54.012
		c-3.195-0.699-5.217-3.857-4.516-7.054l0.423-1.929c0.701-3.194,3.859-5.216,7.054-4.516l246.192,54.012
		c3.196,0.701,5.218,3.859,4.517,7.054L573.074,667.191z"/>
	<path fill="#E5E5E5" d="M486.093,729.75c1-3.152,3.016-6.546,5.916-9.474c0.948-0.955,1.988-1.863,3.119-2.692
		c3.862-2.839,8.765-4.799,14.529-4.904c2.12-0.038,4.354,0.166,6.697,0.681c17.218,3.776,22.384,19.886,20.365,29.088
		c-0.02,0.087-0.071,0.321-0.078,0.353l-2.807,12.799l-4.846,22.091l-6.083,27.724c-0.216,0.986-1.218,1.604-2.237,1.38
		l-47.345-10.387c-1.02-0.224-1.67-1.202-1.453-2.19l13.736-62.611c0.008-0.033,0.059-0.267,0.078-0.354
		C485.791,730.762,485.931,730.259,486.093,729.75z"/>
	<g>
		<path fill="#8D8D8D" d="M533.549,742.299c0.381-2.961,0.045-6.497-1.163-9.981c-0.395-1.137-0.88-2.268-1.468-3.37
			c-2.001-3.768-5.156-7.201-9.68-9.43c-1.664-0.819-3.507-1.482-5.553-1.932c-15.037-3.299-25.116,8.011-26.938,16.32
			c-0.018,0.078-0.064,0.291-0.071,0.319l-2.535,11.556l-4.375,19.944l-5.492,25.032c-0.195,0.892,0.368,1.769,1.258,1.965
			l41.347,9.07c0.889,0.196,1.768-0.366,1.964-1.258l12.402-56.531c0.006-0.029,0.053-0.242,0.07-0.32
			C533.412,743.24,533.488,742.776,533.549,742.299z"/>
		<path opacity="0.5" fill="#D0D0D0" d="M521.239,719.518l-35.097,26.264l-4.375,19.944l49.152-36.778
			C528.917,725.18,525.763,721.746,521.239,719.518z"/>
	</g>
	<path fill="#E5E5E5" d="M415.707,714.309c1-3.152,3.016-6.547,5.916-9.474c0.948-0.955,1.988-1.862,3.119-2.693
		c3.86-2.838,8.765-4.799,14.529-4.904c2.119-0.036,4.353,0.167,6.695,0.681c17.218,3.777,22.384,19.886,20.365,29.089
		c-0.019,0.087-0.07,0.321-0.078,0.353l-2.807,12.799l-4.846,22.09l-6.083,27.725c-0.216,0.986-1.217,1.604-2.236,1.379
		l-47.345-10.386c-1.02-0.224-1.669-1.202-1.453-2.189l13.736-62.613c0.007-0.031,0.058-0.266,0.078-0.353
		C415.405,715.319,415.545,714.815,415.707,714.309z"/>
	<g>
		<path fill="#8D8D8D" d="M418.618,717.084c0.894-2.849,2.679-5.919,5.233-8.576c0.836-0.869,1.751-1.691,2.745-2.448
			c3.394-2.583,7.696-4.38,12.738-4.511c1.854-0.048,3.807,0.122,5.853,0.57c15.035,3.299,19.455,17.789,17.632,26.1
			c-0.017,0.077-0.063,0.29-0.07,0.318l-2.535,11.555l-4.375,19.945l-5.492,25.032c-0.196,0.891-1.075,1.453-1.965,1.258
			l-41.345-9.07c-0.891-0.196-1.453-1.073-1.258-1.966l12.403-56.531c0.006-0.03,0.053-0.242,0.07-0.32
			C418.347,717.997,418.473,717.544,418.618,717.084z"/>
		<path opacity="0.5" fill="#D0D0D0" d="M428.813,741.668c-1.922,1.438-2.313,4.159-0.877,6.081
			c1.438,1.919,4.161,2.313,6.082,0.876l29.102-21.777c0.381-2.962,0.045-6.497-1.162-9.98L428.813,741.668z"/>
	</g>
	<path fill="#363636" d="M457.982,790.514c-0.541,2.464-2.975,4.023-5.438,3.483l-53.03-11.635c-2.462-0.54-4.021-2.976-3.48-5.438
		l0,0c0.54-2.463,2.975-4.021,5.437-3.481l53.031,11.635C456.964,785.618,458.522,788.052,457.982,790.514L457.982,790.514z"/>
	<path fill="#363636" d="M525.476,805.322c-0.54,2.463-2.975,4.021-5.438,3.481l-53.031-11.635c-2.462-0.54-4.021-2.974-3.48-5.438
		l0,0c0.54-2.463,2.975-4.021,5.437-3.48l53.031,11.635C524.458,800.426,526.017,802.859,525.476,805.322L525.476,805.322z"/>
</g>
<g id="Trees">
	<g>
		<path fill="#5F5F5F" d="M242.134,807.979c24.757,40.493,18.289,67.199-2.18,79.712c-20.468,12.515-47.187,6.099-71.943-34.395
			c-24.756-40.492-24.816-90.766-10.084-99.773C170.173,746.037,217.377,767.486,242.134,807.979z"/>
		<path fill="#131313" d="M274.998,931.132c1.45,2.372,0.703,5.473-1.67,6.924l-3.759,2.298c-2.374,1.452-5.475,0.702-6.925-1.67
			l-63.458-103.795c-1.452-2.373-0.704-5.473,1.67-6.924l3.759-2.299c2.373-1.451,5.473-0.703,6.924,1.67L274.998,931.132z"/>
	</g>
	<g>
		<path fill="#5F5F5F" d="M677.284,732.833c-3.604,32.39-18.351,44.159-34.723,42.335c-16.372-1.823-28.169-16.547-24.565-48.934
			c3.607-32.39,24.729-59.691,36.512-58.381C664.303,668.943,680.891,700.446,677.284,732.833z"/>
		<path fill="#131313" d="M643.297,813.484c-0.211,1.896-1.92,3.265-3.818,3.054l-3.008-0.334c-1.898-0.212-3.265-1.923-3.054-3.82
			l9.24-83.021c0.214-1.899,1.923-3.266,3.821-3.055l3.008,0.335c1.896,0.21,3.266,1.922,3.054,3.819L643.297,813.484z"/>
	</g>
</g>
<g id="UFO">
	<path opacity="0.3" fill="#E8E8E8" d="M655.764,249.137l-507.129,524.2c0,0,178.792,142.771,438.175,213.479
		C880.533,1066.886,1058.4,964.8,1058.4,964.8L858.052,313.467C858.052,313.467,845.248,369.019,655.764,249.137z"/>
	<path opacity="0.5" fill="#F6F6F6" d="M698.625,336.08c-32.768-8.842-61.477-18.158-84.162-26.161l-52.113,58.419
		c7.379,27.823,21.431,53.382,40.691,74.473c1.138-1.015,2.244-2.083,3.277-3.247L698.625,336.08z"/>
</g>
<g id="Moon">
	<path fill="#D9D9D9" d="M306.785,217.833c-7.557-2.399-15.598-3.699-23.949-3.699c-43.607,0-78.962,35.351-78.962,78.965
		c0,11.713,2.556,22.83,7.128,32.831c11.994,8.764,26.771,13.943,42.762,13.943c26.247,0,49.234-13.939,61.971-34.819
		c3.357-5.498,5.997-11.479,7.803-17.814c1.802-6.325,2.766-13.002,2.766-19.908C326.304,248.199,318.894,230.795,306.785,217.833z"
		/>
	<path fill="#C5C5C5" d="M279.574,254.957c0,5.213-4.227,9.442-9.446,9.442c-5.216,0-9.442-4.229-9.442-9.442
		c0-5.217,4.227-9.447,9.442-9.447C275.347,245.51,279.574,249.739,279.574,254.957z"/>
	<circle fill="#C5C5C5" cx="255.518" cy="280.578" r="13.244"/>
	<path fill="#B1B1B1" d="M306.785,217.833c12.109,12.963,19.519,30.366,19.519,49.499c0,6.906-0.964,13.583-2.766,19.908
		c-1.806,6.335-4.445,12.316-7.803,17.814c-12.737,20.88-35.725,34.819-61.971,34.819c-15.991,0-30.768-5.179-42.762-13.943
		c12.462,27.219,39.94,46.136,71.834,46.136c43.615,0,78.966-35.355,78.966-78.967C361.802,257.834,338.687,227.975,306.785,217.833
		z"/>
	<path fill="#868686" d="M326.304,294.393c0-2.754-1.056-5.258-2.766-7.153c-1.806,6.335-4.445,12.316-7.803,17.814
		C321.581,305.002,326.304,300.251,326.304,294.393z"/>
	<path fill="#C5C5C5" d="M315.635,283.723c-5.89,0-10.668,4.776-10.668,10.67c0,5.89,4.778,10.664,10.668,10.664
		c0.032,0,0.068-0.003,0.1-0.003c3.357-5.498,5.997-11.479,7.803-17.814C321.585,285.085,318.771,283.723,315.635,283.723z"/>
	<path fill="#868686" d="M304.967,348.866c0,7.585-6.148,13.733-13.729,13.733c-7.585,0-13.732-6.148-13.732-13.733
		c0-7.58,6.147-13.729,13.732-13.729C298.819,335.138,304.967,341.286,304.967,348.866z"/>
	<path fill="#868686" d="M344.768,296.024c0,3.977-3.227,7.199-7.2,7.199c-3.977,0-7.2-3.223-7.2-7.199
		c0-3.978,3.223-7.201,7.2-7.201C341.541,288.823,344.768,292.047,344.768,296.024z"/>
</g>
<g>
	<path fill="#5C5C5C" d="M814.214,366.732c-53.825-9.532-106.145-26.171-155.589-49.479c-12.802-6.036-19.151-20.627-14.861-34.116
		l0,0l202.288,64.33l0,0C841.762,360.956,828.151,369.2,814.214,366.732z"/>
	<path fill="#797979" d="M796.254,361.021c-41.903-5.742-82.146-18.539-119.669-38.057c-9.716-5.054-13.761-18.913-9.471-32.4l0,0
		l155.588,49.479l0,0C818.413,353.53,807.105,362.506,796.254,361.021z"/>
	<path fill="none" stroke="#515151" stroke-width="8" stroke-linecap="round" stroke-linejoin="round" stroke-miterlimit="10" d="
		M814.214,366.732c-53.825-9.532-106.145-26.171-155.589-49.479c-12.802-6.036-19.151-20.627-14.861-34.116l0,0l202.288,64.33l0,0
		C841.762,360.956,828.151,369.2,814.214,366.732z"/>
	<path fill="#B3B3B3" d="M839.524,308.924c14.243-58.486-7.636-114.793-51.634-128.784c-43.997-13.992-94.381,19.333-116.536,75.304
		L839.524,308.924z"/>
	<path fill="#C6C6C6" d="M820.082,302.742c15.158-58.195,1.632-111.845-32.191-122.602s-75.854,25.226-97.094,81.487
		L820.082,302.742z"/>
	<path fill="none" stroke="#515151" stroke-width="8" stroke-linecap="round" stroke-linejoin="round" stroke-miterlimit="10" d="
		M839.524,308.924c14.243-58.486-7.636-114.793-51.634-128.784c-43.997-13.992-94.381,19.333-116.536,75.304L839.524,308.924z"/>
	
		<line fill="none" stroke="#515151" stroke-width="8" stroke-linecap="round" stroke-linejoin="round" stroke-miterlimit="10" x1="787.891" y1="180.14" x2="791.59" y2="168.509"/>
	<path fill="#979797" d="M807.516,160.266c-2.124,6.677-9.249,10.365-15.927,8.241c-4.661-1.482-7.861-5.405-8.646-9.905
		c-0.346-1.95-0.236-4.011,0.403-6.022c2.122-6.671,9.257-10.363,15.929-8.241c1.233,0.393,2.37,0.958,3.38,1.66
		C807.115,149.086,809.244,154.83,807.516,160.266z"/>
	<path fill="#C4C4C4" d="M802.252,152.021c-2.123,6.677-9.248,10.365-15.927,8.241c-1.235-0.393-2.37-0.957-3.382-1.66
		c-0.346-1.95-0.236-4.011,0.403-6.022c2.122-6.671,9.257-10.363,15.929-8.241c1.233,0.393,2.37,0.958,3.38,1.66
		C803.002,147.949,802.894,150.004,802.252,152.021z"/>
	
		<circle fill="none" stroke="#515151" stroke-width="8" stroke-linecap="round" stroke-linejoin="round" stroke-miterlimit="10" cx="795.433" cy="156.426" r="12.68"/>
	<g>
		<g>
			<path fill="#BBBBBB" d="M667.884,332.203l-1.042-0.332c-3.297-1.048-5.12-4.571-4.072-7.868l4.38-13.771
				c1.049-3.296,4.571-5.12,7.868-4.071l1.043,0.332c3.297,1.048,5.119,4.57,4.069,7.868l-4.379,13.771
				C674.703,331.429,671.182,333.251,667.884,332.203z"/>
			<path fill="none" stroke="#515151" stroke-width="8" stroke-linecap="round" stroke-linejoin="round" stroke-miterlimit="10" d="
				M667.884,332.203l-1.042-0.332c-3.297-1.048-5.12-4.571-4.072-7.868l4.38-13.771c1.049-3.296,4.571-5.12,7.868-4.071l1.043,0.332
				c3.297,1.048,5.119,4.57,4.069,7.868l-4.379,13.771C674.703,331.429,671.182,333.251,667.884,332.203z"/>
		</g>
		<g>
			<path fill="#BBBBBB" d="M733.474,353.062l-1.042-0.332c-3.297-1.049-5.12-4.571-4.071-7.868l4.379-13.771
				c1.049-3.297,4.57-5.119,7.867-4.071l1.043,0.331c3.297,1.049,5.12,4.571,4.071,7.868l-4.379,13.771
				C740.293,352.287,736.771,354.11,733.474,353.062z"/>
			<path fill="none" stroke="#515151" stroke-width="8" stroke-linecap="round" stroke-linejoin="round" stroke-miterlimit="10" d="
				M733.474,353.062l-1.042-0.332c-3.297-1.049-5.12-4.571-4.071-7.868l4.379-13.771c1.049-3.297,4.57-5.119,7.867-4.071
				l1.043,0.331c3.297,1.049,5.12,4.571,4.071,7.868l-4.379,13.771C740.293,352.287,736.771,354.11,733.474,353.062z"/>
		</g>
		<g>
			<path fill="#BBBBBB" d="M799.063,373.92l-1.043-0.332c-3.297-1.048-5.12-4.571-4.071-7.868l4.379-13.771
				c1.049-3.297,4.572-5.12,7.868-4.071l1.043,0.332c3.296,1.048,5.119,4.571,4.07,7.867l-4.38,13.771
				C805.882,373.145,802.359,374.968,799.063,373.92z"/>
			<path fill="none" stroke="#515151" stroke-width="8" stroke-linecap="round" stroke-linejoin="round" stroke-miterlimit="10" d="
				M799.063,373.92l-1.043-0.332c-3.297-1.048-5.12-4.571-4.071-7.868l4.379-13.771c1.049-3.297,4.572-5.12,7.868-4.071l1.043,0.332
				c3.296,1.048,5.119,4.571,4.07,7.867l-4.38,13.771C805.882,373.145,802.359,374.968,799.063,373.92z"/>
		</g>
	</g>
	<g>
		<g>
			<path fill="#BBBBBB" d="M685.106,278.051l-1.044-0.332c-3.296-1.048-5.119-4.571-4.07-7.868l4.379-13.771
				c1.048-3.297,4.571-5.119,7.867-4.07l1.043,0.332c3.297,1.048,5.119,4.571,4.071,7.867l-4.38,13.771
				C691.924,277.276,688.402,279.099,685.106,278.051z"/>
			<path fill="none" stroke="#515151" stroke-width="8" stroke-linecap="round" stroke-linejoin="round" stroke-miterlimit="10" d="
				M685.106,278.051l-1.044-0.332c-3.296-1.048-5.119-4.571-4.07-7.868l4.379-13.771c1.048-3.297,4.571-5.119,7.867-4.07
				l1.043,0.332c3.297,1.048,5.119,4.571,4.071,7.867l-4.38,13.771C691.924,277.276,688.402,279.099,685.106,278.051z"/>
		</g>
		<g>
			<path fill="#BBBBBB" d="M750.694,298.909l-1.042-0.332c-3.296-1.048-5.118-4.571-4.071-7.867l4.38-13.771
				c1.049-3.296,4.57-5.12,7.867-4.071l1.043,0.331c3.296,1.049,5.119,4.572,4.07,7.869l-4.379,13.771
				C757.515,298.135,753.991,299.958,750.694,298.909z"/>
			<path fill="none" stroke="#515151" stroke-width="8" stroke-linecap="round" stroke-linejoin="round" stroke-miterlimit="10" d="
				M750.694,298.909l-1.042-0.332c-3.296-1.048-5.118-4.571-4.071-7.867l4.38-13.771c1.049-3.296,4.57-5.12,7.867-4.071l1.043,0.331
				c3.296,1.049,5.119,4.572,4.07,7.869l-4.379,13.771C757.515,298.135,753.991,299.958,750.694,298.909z"/>
		</g>
		<g>
			<path fill="#BBBBBB" d="M816.285,319.768l-1.044-0.332c-3.296-1.048-5.119-4.571-4.07-7.867l4.38-13.771
				c1.048-3.297,4.57-5.12,7.866-4.071l1.044,0.332c3.296,1.049,5.118,4.571,4.071,7.868l-4.381,13.771
				C823.104,318.993,819.581,320.815,816.285,319.768z"/>
			<path fill="none" stroke="#515151" stroke-width="8" stroke-linecap="round" stroke-linejoin="round" stroke-miterlimit="10" d="
				M816.285,319.768l-1.044-0.332c-3.296-1.048-5.119-4.571-4.07-7.867l4.38-13.771c1.048-3.297,4.57-5.12,7.866-4.071l1.044,0.332
				c3.296,1.049,5.118,4.571,4.071,7.868l-4.381,13.771C823.104,318.993,819.581,320.815,816.285,319.768z"/>
		</g>
	</g>
	
		<ellipse transform="matrix(0.953 0.3031 -0.3031 0.953 104.2532 -227.8353)" fill="#FFFFFF" cx="786.243" cy="222" rx="28.022" ry="13.148"/>
	<path fill="#A0A0A0" d="M836.722,344.5l-183.628-58.396c-13.633-4.335-24.144-15.28-27.926-29.077l0,0
		c-2.104-7.68,5.139-14.637,12.728-12.223l235.089,74.761c7.588,2.413,9.482,12.276,3.328,17.33l0,0
		C865.257,345.973,850.354,348.835,836.722,344.5z"/>
	<path fill="#BBBBBB" d="M821.207,339.566l-152.599-48.528c-11.329-3.603-19.693-13.864-22.221-27.263l0,0
		c-1.407-7.458,5.064-14.66,11.37-12.655l195.364,62.129c6.306,2.005,7.428,11.623,1.972,16.897l0,0
		C845.291,339.624,832.536,343.169,821.207,339.566z"/>
	<path fill="none" stroke="#515151" stroke-width="8" stroke-linecap="round" stroke-linejoin="round" stroke-miterlimit="10" d="
		M836.722,344.5l-183.628-58.396c-13.633-4.335-24.144-15.28-27.926-29.077l0,0c-2.104-7.68,5.139-14.637,12.728-12.223
		l235.089,74.761c7.588,2.413,9.482,12.276,3.328,17.33l0,0C865.257,345.973,850.354,348.835,836.722,344.5z"/>
</g>
</svg>
